# xmcd
#
# Track frame offsets: 
#        150
#        16404
#        35926
#        49351
#        65484
#        80499
#        96693
#        114169
#        126080
#        140561
#        159513
#        175230
#
# Disc length: 2512 seconds
#
# Revision: 0
# Processed by: cddbd v1.5.1PL0 Copyright (c) Steve Scherf et al.
# Submitted via: ExactAudioCopy v0.95a5
#
DISCID=ac09ce0c
DTITLE=Dog Songs - Kirk Olsen
DYEAR=2002
DGENRE=Country
TTITLE0=Riki Kiki (The Tahitian Fishing Dog)
TTITLE1=If My Dog Could Talk
TTITLE2=Please Take Me Home
TTITLE3=I Used To Have A Girlfriend
TTITLE4=Too Much Love For One Bed
TTITLE5=The Dog Beach Boogie
TTITLE6=Maybe Manana
TTITLE7=The Dog Accross The Street
TTITLE8=(Iwant To Be) A Circus Dog
TTITLE9=(I'm Proud To Be An) American Dog
TTITLE10=It's A Dogs Life
TTITLE11=An Old Dogs Song
EXTD=
EXTT0=
EXTT1=
EXTT2=
EXTT3=
EXTT4=
EXTT5=
EXTT6=
EXTT7=
EXTT8=
EXTT9=
EXTT10=
EXTT11=
PLAYORDER=
